<?xml version="1.0" encoding="UTF-8"?>
<svg width="808px" height="661px" viewBox="0 0 808 661" version="1.1" xmlns="http://www.w3.org/2000/svg" xmlns:xlink="http://www.w3.org/1999/xlink">
    <!-- Generator: Sketch 62 (91390) - https://sketch.com -->
    <title>Group 553</title>
    <desc>Created with Sketch.</desc>
    <defs>
        <polygon id="path-1" points="0.244599714 0.426414625 779.196872 0.426414625 779.196872 637.5 0.244599714 637.5"></polygon>
        <polygon id="path-3" points="0.173 0.092 140.375 0.092 140.375 81.0464 0.173 81.0464"></polygon>
        <polyline id="path-5" points="0.236 6.362 37.682 27.986 38.714 21.896 1.274 0.272"></polyline>
        <polyline id="path-7" points="0.236 6.362 37.682 27.986 38.714 21.896 1.274 0.272"></polyline>
        <polyline id="path-9" points="0.236 6.362 37.682 27.986 38.714 21.896 1.274 0.272"></polyline>
        <polyline id="path-11" points="0.236 6.362 37.682 27.986 38.714 21.896 1.274 0.272"></polyline>
        <polyline id="path-13" points="0.858 6.732 38.304 28.356 39.342 22.26 1.896 0.642"></polyline>
        <polyline id="path-15" points="0.858 6.732 38.304 28.356 39.342 22.26 1.896 0.642"></polyline>
        <polyline id="path-17" points="0.858 6.732 38.304 28.356 39.342 22.26 1.896 0.642"></polyline>
        <polyline id="path-19" points="0.858 6.732 38.304 28.356 39.342 22.26 1.896 0.642"></polyline>
        <polyline id="path-21" points="0.87 6.132 38.316 27.75 39.354 21.654 1.902 0.03"></polyline>
        <polyline id="path-23" points="0.87 6.132 38.316 27.75 39.354 21.654 1.902 0.03"></polyline>
        <polyline id="path-25" points="0.87 6.132 38.316 27.75 39.354 21.654 1.902 0.03"></polyline>
        <polyline id="path-27" points="0.87 6.132 38.316 27.75 39.354 21.654 1.902 0.03"></polyline>
        <polyline id="path-29" points="0.282 6.374 37.722 27.998 38.76 21.908 1.314 0.29"></polyline>
        <polyline id="path-31" points="0.282 6.374 37.722 27.998 38.76 21.908 1.314 0.29"></polyline>
        <polyline id="path-33" points="0.282 6.374 37.722 27.998 38.76 21.908 1.314 0.29"></polyline>
        <polyline id="path-35" points="0.282 6.374 37.722 27.998 38.76 21.908 1.314 0.29"></polyline>
    </defs>
    <g id="PitchDeck" stroke="none" stroke-width="1" fill="none" fill-rule="evenodd">
        <g id="Group-553">
            <g id="Group-3" transform="translate(7.000000, 23.408000)">
                <mask id="mask-2" fill="white">
                    <use xlink:href="#path-1"></use>
                </mask>
                <g id="Clip-2"></g>
                <path d="M112.5344,1.4772 C264.7184,-14.1588 421.3484,149.9352 481.3484,146.2992 C541.3484,142.6572 837.7304,89.1972 768.8924,288.4932 C700.0484,487.7892 529.1684,675.5952 402.8204,630.8292 C276.4604,586.0572 136.6964,526.4472 140.8964,454.2672 C145.0844,382.0812 -24.5656,363.6312 5.2544,267.8532 C35.0744,172.0692 -73.6816,20.6112 112.5344,1.4772" id="Fill-1" fill="#007AC4" mask="url(#mask-2)"></path>
            </g>
            <polygon id="Fill-4" fill="#D9DAE3" points="5.6052 402.5342 0.0012 399.2942 0.0012 405.7682 403.6452 638.8082 807.2892 405.7622 807.2892 399.2882 801.6912 402.5342 403.6452 172.7282"></polygon>
            <polygon id="Fill-5" fill="#F0F3F8" points="0 399.2858 0 399.2918 403.644 632.3318 807.288 399.2918 403.644 166.2338"></polygon>
            <polygon id="Fill-6" fill="#B1C21E" points="510.372 534.1352 402.744 596.7032 135.414 440.3912 243.024 377.8112"></polygon>
            <polygon id="Fill-7" fill="#393A3A" points="466.374 243.041 129.654 437.435 106.95 424.343 443.67 229.931"></polygon>
            <polygon id="Fill-8" fill="#FEFEFE" points="117.2826 430.5926 118.8006 431.4806 121.0746 430.1546 119.5566 429.2786"></polygon>
            <path d="M130.1166,424.9106 L125.5626,427.5266 L124.0446,426.6506 L128.5986,424.0226 L130.1166,424.9106 Z M139.2426,419.6426 L134.6886,422.2826 L133.1586,421.3886 L137.7126,418.7786 L139.2426,419.6426 Z M148.3506,414.3806 L143.8566,417.0626 L142.3266,416.1926 L146.9286,413.5106 L148.3506,414.3806 Z M157.4586,409.1366 L152.9046,411.7526 L151.3866,410.8766 L155.9406,408.2486 L157.4586,409.1366 Z M166.5606,403.8686 L162.0066,406.5026 L160.4886,405.6146 L165.0426,402.9986 L166.5606,403.8686 Z M175.6686,398.6066 L171.1446,401.2406 L169.6266,400.3646 L174.2166,397.6886 L175.6686,398.6066 Z M184.7706,393.3566 L180.2226,395.9786 L178.7046,395.1026 L183.2526,392.4746 L184.7706,393.3566 Z M193.8786,388.0946 L189.3246,390.7286 L187.8066,389.8406 L192.3606,387.2246 L193.8786,388.0946 Z M202.9866,382.8326 L198.4326,385.4666 L196.9146,384.5906 L201.4686,381.9626 L202.9866,382.8326 Z M212.0886,377.5826 L207.5346,380.2046 L206.0166,379.3286 L210.5706,376.7006 L212.0886,377.5826 Z M221.2026,372.3206 L216.6486,374.9546 L215.1246,374.0606 L219.6846,371.4506 L221.2026,372.3206 Z M230.3706,367.0106 L225.8166,369.6386 L224.2986,368.7746 L228.8526,366.1406 L230.3706,367.0106 Z M239.5386,361.8086 L234.9906,364.4246 L233.4726,363.5546 L238.0206,360.9206 L239.5386,361.8086 Z M248.6466,356.5466 L244.0926,359.1806 L242.5746,358.2926 L247.0266,355.7066 L248.6466,356.5466 Z M257.6886,351.2666 L253.1346,353.9006 L251.6166,353.0306 L256.1706,350.3966 L257.6886,351.2666 Z M266.7906,346.0226 L262.2426,348.6386 L260.7246,347.7626 L265.2726,345.1346 L266.7906,346.0226 Z M275.9166,340.8026 L271.3626,343.4366 L269.8266,342.5486 L274.3986,339.9326 L275.9166,340.8026 Z M285.0186,335.5406 L280.4706,338.1746 L278.8566,337.2986 L283.4226,334.6706 L285.0186,335.5406 Z M294.1266,330.2906 L289.5726,332.9126 L288.0546,332.0366 L292.6086,329.4086 L294.1266,330.2906 Z M303.2406,325.0346 L298.6986,327.6326 L297.1806,326.7446 L301.7346,324.1286 L303.2406,325.0346 Z M312.3426,319.8146 L307.7886,322.4486 L306.2706,321.5726 L310.8246,318.9446 L312.3426,319.8146 Z M321.4506,314.5706 L316.8966,317.1806 L315.3786,316.3106 L319.9326,313.6766 L321.4506,314.5706 Z M330.5526,309.3026 L325.9986,311.9366 L324.4866,311.0486 L329.0346,308.4326 L330.5526,309.3026 Z M339.6606,304.0406 L335.1066,306.6746 L333.5886,305.7986 L338.1426,303.1706 L339.6606,304.0406 Z M348.7446,298.7126 L344.1966,301.3286 L342.6786,300.4586 L347.2326,297.8246 L348.7446,298.7126 Z M357.8706,293.4506 L353.3166,296.0786 L351.7986,295.1906 L356.3526,292.5746 L357.8706,293.4506 Z M366.9786,288.1826 L362.4246,290.8166 L360.9066,289.9466 L365.4606,287.3126 L366.9786,288.1826 Z M376.0866,282.9386 L371.5326,285.5546 L370.0146,284.6786 L374.5686,282.0506 L376.0866,282.9386 Z M385.1946,277.6766 L380.6406,280.3046 L379.1226,279.4166 L383.6766,276.8006 L385.1946,277.6766 Z M394.2966,272.4086 L389.7426,274.9766 L388.2306,274.1066 L392.7786,271.4726 L394.2966,272.4086 Z M403.4226,267.1646 L398.8026,269.7806 L397.2666,268.9106 L401.8206,266.2766 L403.4226,267.1646 Z M412.5246,261.9026 L407.9766,264.5366 L406.4586,263.6426 L411.0066,261.0326 L412.5246,261.9026 Z M421.6326,256.6406 L417.0786,259.2686 L415.5606,258.3986 L420.1146,255.7646 L421.6326,256.6406 Z M430.7406,251.3906 L426.2466,253.9886 L424.7346,253.1186 L429.2826,250.4846 L430.7406,251.3906 Z M439.8426,246.1286 L435.2886,248.7566 L433.7706,247.8686 L438.3246,245.2526 L439.8426,246.1286 Z M448.9506,240.8606 L444.3966,243.4946 L442.8786,242.6246 L447.4326,239.9906 L448.9506,240.8606 Z" id="Fill-9" fill="#FEFEFE"></path>
            <polygon id="Fill-10" fill="#FEFEFE" points="451.9854 237.359 453.5094 238.247 455.7834 236.921 454.2654 236.051"></polygon>
            <g id="Group-454" transform="translate(54.000000, 0.408000)">
                <path d="M180.2784,444.2834 C187.7244,427.3454 229.2564,429.2174 273.0444,448.4654 C316.8324,467.7134 346.2924,497.0534 338.8464,513.9914 C331.4004,530.9234 289.8684,529.0574 246.0804,509.8094 C202.2924,490.5614 172.8324,461.2214 180.2784,444.2834" id="Fill-11" fill="#5DC2DB"></path>
                <polygon id="Fill-13" fill="#B1C21E" points="342.7182 248.7062 157.0962 356.8982 106.2642 329.0642 291.8922 220.8662"></polygon>
                <polygon id="Fill-15" fill="#B1C21E" points="613.2924 443.5394 454.5444 535.3574 332.6724 466.1594 491.4204 374.3174"></polygon>
                <path d="M158.7396,314.0618 L153.6816,314.0618 L153.6816,331.8218 C153.7236,332.2778 154.0116,332.6738 154.4256,332.8538 C155.5536,333.4238 156.8676,333.4238 157.9956,332.8538 C158.4036,332.6678 158.6856,332.2778 158.7396,331.8218 L158.7396,314.0618 Z" id="Fill-17" fill="#443D31"></path>
                <path d="M156.3312,287.8412 C163.6452,287.8412 169.5732,293.7692 169.5732,301.0832 C169.5732,308.3912 163.6452,314.3252 156.3312,314.3252 C149.0172,314.3252 143.0952,308.3912 143.0952,301.0832 C143.0952,293.7692 149.0172,287.8412 156.3312,287.8412" id="Fill-19" fill="#BDD532"></path>
                <path d="M189.6888,296.2874 L184.6368,296.2874 L184.6368,314.0474 C184.6788,314.4974 184.9668,314.8934 185.3748,315.0794 C186.5028,315.6434 187.8228,315.6434 188.9448,315.0794 C189.3648,314.8994 189.6468,314.5034 189.6888,314.0474 L189.6888,296.2874 Z" id="Fill-21" fill="#443D31"></path>
                <path d="M187.2804,270.0812 C194.5944,270.0812 200.5224,276.0092 200.5224,283.3232 C200.5224,290.6312 194.5944,296.5592 187.2804,296.5592 C179.9724,296.5592 174.0444,290.6312 174.0444,283.3232 C174.0444,276.0092 179.9724,270.0812 187.2804,270.0812" id="Fill-23" fill="#BDD532"></path>
                <path d="M254.124,262.4612 L249.072,262.4612 L249.072,280.2212 C249.102,280.6772 249.396,281.0792 249.816,281.2532 C250.938,281.8352 252.264,281.8352 253.386,281.2532 C253.8,281.0732 254.088,280.6772 254.124,280.2212 L254.124,262.4612 Z" id="Fill-25" fill="#443D31"></path>
                <path d="M251.7216,236.255 C259.0356,236.255 264.9576,242.183 264.9576,249.497 C264.9576,256.805 259.0356,262.739 251.7216,262.739 C244.4076,262.739 238.4796,256.805 238.4796,249.497 C238.4796,242.183 244.4076,236.255 251.7216,236.255" id="Fill-27" fill="#BDD532"></path>
                <polygon id="Fill-29" fill="#E2E5ED" points="491.4228 361.3706 446.5848 335.4746 446.5848 227.8106 491.4228 253.6946"></polygon>
                <polygon id="Fill-31" fill="#EBEFF7" points="491.4228 253.6928 446.5848 227.8148 491.4228 201.9308 536.2428 227.8148"></polygon>
                <polygon id="Fill-33" fill="#5B6BB1" points="483.3486 275.9438 454.6566 259.3778 454.6566 244.8938 483.3486 261.4598"></polygon>
                <polygon id="Fill-35" fill="#D9DAE3" points="536.2416 335.4896 491.4216 361.3676 491.4216 253.6916 536.2416 227.8136"></polygon>
                <polygon id="Fill-37" fill="#5B6BB1" points="510.249 269.7416 499.497 275.9576 499.497 261.4616 510.249 255.2456"></polygon>
                <polygon id="Fill-39" fill="#5B6BB1" points="528.1848 259.394 517.4148 265.61 517.4148 251.114 528.1848 244.892"></polygon>
                <polygon id="Fill-41" fill="#5B6BB1" points="510.249 291.4916 499.497 297.6896 499.497 283.2116 510.249 276.9896"></polygon>
                <polygon id="Fill-43" fill="#5B6BB1" points="528.1848 281.1266 517.4148 287.3426 517.4148 272.8586 528.1848 266.6426"></polygon>
                <polygon id="Fill-45" fill="#5B6BB1" points="510.249 313.2242 499.497 319.4402 499.497 304.9442 510.249 298.7402"></polygon>
                <polygon id="Fill-47" fill="#5B6BB1" points="528.1848 302.8736 517.4148 309.0896 517.4148 294.5936 528.1848 288.3716"></polygon>
                <polygon id="Fill-49" fill="#5B6BB1" points="510.249 336.005 499.497 342.221 499.497 327.725 510.249 321.503"></polygon>
                <polygon id="Fill-51" fill="#5B6BB1" points="528.1848 325.6544 517.4148 331.8704 517.4148 317.3744 528.1848 311.1524"></polygon>
                <polygon id="Fill-53" fill="#5B6BB1" points="483.3486 297.6908 454.6566 281.1248 454.6566 266.6288 483.3486 283.1888"></polygon>
                <polygon id="Fill-55" fill="#5B6BB1" points="483.3486 319.4408 454.6566 302.8748 454.6566 288.3728 483.3486 304.9388"></polygon>
                <polygon id="Fill-57" fill="#5B6BB1" points="483.3486 342.2042 454.6566 325.6382 454.6566 311.1542 483.3486 327.7202"></polygon>
                <polygon id="Fill-59" fill="#E2E5ED" points="491.4228 242.3108 465.5508 227.3768 465.5508 222.7568 491.4228 237.6908"></polygon>
                <polygon id="Fill-61" fill="#D9DAE3" points="491.4228 242.3108 517.2888 227.3768 517.2888 222.7568 491.4228 237.6908"></polygon>
                <polygon id="Fill-63" fill="#E2E5ED" points="103.2276 388.0454 58.3896 362.1614 58.3896 192.3554 103.2276 218.2394"></polygon>
                <polygon id="Fill-65" fill="#EBEFF7" points="103.2276 218.2376 58.3896 192.3596 103.2276 166.4756 148.0476 192.3596"></polygon>
                <polygon id="Fill-67" fill="#839ED1" points="95.1534 240.503 66.4674 223.937 66.4674 209.435 95.1534 226.001"></polygon>
                <polygon id="Fill-69" fill="#D9DAE3" points="148.0458 362.1614 103.2258 388.0454 103.2258 218.2574 148.0458 192.3734"></polygon>
                <polygon id="Fill-71" fill="#839ED1" points="122.0538 234.3038 111.3018 240.5198 111.3018 226.0178 122.0538 219.8018"></polygon>
                <polygon id="Fill-73" fill="#839ED1" points="139.9896 223.9532 129.2256 230.1512 129.2256 215.6552 139.9896 209.4512"></polygon>
                <polygon id="Fill-75" fill="#839ED1" points="122.0538 256.0364 111.3018 262.2524 111.3018 247.7504 122.0538 241.5524"></polygon>
                <polygon id="Fill-77" fill="#839ED1" points="139.9896 245.6858 129.2256 251.9018 129.2256 237.4058 139.9896 231.1838"></polygon>
                <polygon id="Fill-79" fill="#839ED1" points="122.0538 277.7834 111.3018 283.9994 111.3018 269.5034 122.0538 263.2814"></polygon>
                <polygon id="Fill-81" fill="#839ED1" points="139.9896 267.4328 129.2256 273.6368 129.2256 259.1528 139.9896 252.9308"></polygon>
                <polygon id="Fill-83" fill="#839ED1" points="122.0538 300.5648 111.3018 306.7628 111.3018 292.2848 122.0538 286.0628"></polygon>
                <polygon id="Fill-85" fill="#839ED1" points="139.9896 290.1998 129.2256 296.4158 129.2256 281.9198 139.9896 275.7158"></polygon>
                <polygon id="Fill-87" fill="#839ED1" points="122.0538 324.881 111.3018 331.097 111.3018 316.601 122.0538 310.379"></polygon>
                <polygon id="Fill-89" fill="#839ED1" points="139.9896 314.5304 129.2256 320.7344 129.2256 306.2504 139.9896 300.0284"></polygon>
                <polygon id="Fill-91" fill="#839ED1" points="122.0538 349.7456 111.3018 355.9616 111.3018 341.4656 122.0538 335.2436"></polygon>
                <polygon id="Fill-93" fill="#839ED1" points="139.9896 339.395 129.2256 345.599 129.2256 331.115 139.9896 324.893"></polygon>
                <polygon id="Fill-95" fill="#839ED1" points="95.1534 262.2506 66.4674 245.6846 66.4674 231.1886 95.1534 247.7486"></polygon>
                <polygon id="Fill-97" fill="#839ED1" points="95.1534 283.9826 66.4674 267.4166 66.4674 252.9206 95.1534 269.4806"></polygon>
                <polygon id="Fill-99" fill="#839ED1" points="95.1534 306.764 66.4674 290.198 66.4674 275.702 95.1534 292.262"></polygon>
                <polygon id="Fill-101" fill="#839ED1" points="95.1534 331.0982 66.4674 314.5322 66.4674 300.0302 95.1534 316.5962"></polygon>
                <polygon id="Fill-103" fill="#839ED1" points="95.1534 355.9622 66.4674 339.3962 66.4674 324.8942 95.1534 341.4602"></polygon>
                <polygon id="Fill-105" fill="#E2E5ED" points="103.2276 206.8706 77.3616 191.9366 77.3616 187.3166 103.2276 202.2506"></polygon>
                <polygon id="Fill-107" fill="#D9DAE3" points="103.2276 206.8706 129.0936 191.9366 129.0936 187.3166 103.2276 202.2506"></polygon>
                <polygon id="Fill-109" fill="#E2E5ED" points="103.2276 388.0454 58.3896 362.1614 58.3896 192.3554 103.2276 218.2394"></polygon>
                <polygon id="Fill-111" fill="#EBEFF7" points="103.2276 218.2376 58.3896 192.3596 103.2276 166.4756 148.0656 192.3596"></polygon>
                <polygon id="Fill-113" fill="#5B6BB1" points="95.1534 240.503 66.4674 223.937 66.4674 209.435 95.1534 226.001"></polygon>
                <polygon id="Fill-115" fill="#D9DAE3" points="148.0638 362.1614 103.2258 388.0454 103.2258 218.2574 148.0638 192.3734"></polygon>
                <polygon id="Fill-117" fill="#5B6BB1" points="122.0538 234.3038 111.3018 240.5198 111.3018 226.0178 122.0538 219.8018"></polygon>
                <polygon id="Fill-119" fill="#5B6BB1" points="139.9896 223.9532 129.2256 230.1512 129.2256 215.6552 139.9896 209.4512"></polygon>
                <polygon id="Fill-121" fill="#5B6BB1" points="122.0538 256.0364 111.3018 262.2524 111.3018 247.7504 122.0538 241.5524"></polygon>
                <polygon id="Fill-123" fill="#5B6BB1" points="139.9896 245.6858 129.2256 251.9018 129.2256 237.4058 139.9896 231.1838"></polygon>
                <polygon id="Fill-125" fill="#5B6BB1" points="122.0538 277.7834 111.3018 283.9994 111.3018 269.5034 122.0538 263.2814"></polygon>
                <polygon id="Fill-127" fill="#5B6BB1" points="139.9896 267.4328 129.2256 273.6368 129.2256 259.1528 139.9896 252.9308"></polygon>
                <polygon id="Fill-129" fill="#5B6BB1" points="122.0538 300.5648 111.3018 306.7628 111.3018 292.2848 122.0538 286.0628"></polygon>
                <polygon id="Fill-131" fill="#5B6BB1" points="139.9896 290.1998 129.2256 296.4158 129.2256 281.9198 139.9896 275.7158"></polygon>
                <polygon id="Fill-133" fill="#5B6BB1" points="122.0538 324.881 111.3018 331.097 111.3018 316.601 122.0538 310.379"></polygon>
                <polygon id="Fill-135" fill="#5B6BB1" points="139.9896 314.5304 129.2256 320.7344 129.2256 306.2504 139.9896 300.0284"></polygon>
                <polygon id="Fill-137" fill="#5B6BB1" points="122.0538 349.7456 111.3018 355.9616 111.3018 341.4656 122.0538 335.2436"></polygon>
                <polygon id="Fill-139" fill="#5B6BB1" points="139.9896 339.395 129.2256 345.599 129.2256 331.115 139.9896 324.893"></polygon>
                <polygon id="Fill-141" fill="#5B6BB1" points="95.1534 262.2506 66.4674 245.6846 66.4674 231.1886 95.1534 247.7486"></polygon>
                <polygon id="Fill-143" fill="#5B6BB1" points="95.1534 283.9826 66.4674 267.4166 66.4674 252.9206 95.1534 269.4806"></polygon>
                <polygon id="Fill-145" fill="#5B6BB1" points="95.1534 306.764 66.4674 290.198 66.4674 275.702 95.1534 292.262"></polygon>
                <polygon id="Fill-147" fill="#5B6BB1" points="95.1534 331.0982 66.4674 314.5322 66.4674 300.0302 95.1534 316.5962"></polygon>
                <polygon id="Fill-149" fill="#5B6BB1" points="95.1534 355.9622 66.4674 339.3962 66.4674 324.8942 95.1534 341.4602"></polygon>
                <polygon id="Fill-151" fill="#E2E5ED" points="103.2276 206.8706 77.3616 191.9366 77.3616 187.3166 103.2276 202.2506"></polygon>
                <polygon id="Fill-153" fill="#D9DAE3" points="103.2276 206.8706 129.1056 191.9366 129.1056 187.3166 103.2276 202.2506"></polygon>
                <polygon id="Fill-155" fill="#E2E5ED" points="304.8252 362.9702 260.0052 337.0862 260.0052 167.2982 304.8252 193.1822"></polygon>
                <polygon id="Fill-157" fill="#EBEFF7" points="304.8252 193.1798 259.9872 167.2958 304.8252 141.4178 349.6632 167.2958"></polygon>
                <polygon id="Fill-159" fill="#5B6BB1" points="296.769 215.4284 268.065 198.8624 268.065 184.3784 296.769 200.9444"></polygon>
                <polygon id="Fill-161" fill="#D9DAE3" points="349.6614 337.0862 304.8234 362.9702 304.8234 193.1822 349.6614 167.2982"></polygon>
                <polygon id="Fill-163" fill="#5B6BB1" points="323.6514 209.2286 312.8994 215.4446 312.8994 200.9486 323.6514 194.7266"></polygon>
                <polygon id="Fill-165" fill="#5B6BB1" points="341.5872 198.878 330.8352 205.094 330.8352 190.598 341.5872 184.376"></polygon>
                <polygon id="Fill-167" fill="#5B6BB1" points="323.6514 230.9762 312.8994 237.1802 312.8994 222.6962 323.6514 216.4742"></polygon>
                <polygon id="Fill-169" fill="#5B6BB1" points="341.5872 220.6106 330.8352 226.8266 330.8352 212.3306 341.5872 206.1266"></polygon>
                <polygon id="Fill-171" fill="#5B6BB1" points="323.6514 252.7082 312.8994 258.9242 312.8994 244.4282 323.6514 238.2242"></polygon>
                <polygon id="Fill-173" fill="#5B6BB1" points="341.5872 242.3606 330.8352 248.5766 330.8352 234.0746 341.5872 227.8586"></polygon>
                <polygon id="Fill-175" fill="#5B6BB1" points="323.6514 275.4896 312.8994 281.7056 312.8994 267.2096 323.6514 260.9876"></polygon>
                <polygon id="Fill-177" fill="#5B6BB1" points="341.5872 265.142 330.8352 271.34 330.8352 256.862 341.5872 250.64"></polygon>
                <polygon id="Fill-179" fill="#5B6BB1" points="323.6514 299.8058 312.8994 306.0218 312.8994 291.5258 323.6514 285.3218"></polygon>
                <polygon id="Fill-181" fill="#5B6BB1" points="341.5872 289.4582 330.8352 295.6742 330.8352 281.1722 341.5872 274.9562"></polygon>
                <polygon id="Fill-183" fill="#5B6BB1" points="323.6514 324.6704 312.8994 330.8864 312.8994 316.3904 323.6514 310.1864"></polygon>
                <polygon id="Fill-185" fill="#5B6BB1" points="341.5872 314.3228 330.8352 320.5388 330.8352 306.0368 341.5872 299.8208"></polygon>
                <polygon id="Fill-187" fill="#5B6BB1" points="296.769 237.1784 268.065 220.6124 268.065 206.1104 296.769 222.6764"></polygon>
                <polygon id="Fill-189" fill="#5B6BB1" points="296.769 258.9254 268.065 242.3414 268.065 227.8634 296.769 244.4234"></polygon>
                <polygon id="Fill-191" fill="#5B6BB1" points="296.769 281.6918 268.065 265.1258 268.065 250.6418 296.769 267.1898"></polygon>
                <polygon id="Fill-193" fill="#5B6BB1" points="296.769 306.023 268.065 289.457 268.065 274.961 296.769 291.521"></polygon>
                <polygon id="Fill-195" fill="#5B6BB1" points="296.769 330.887 268.065 314.321 268.065 299.825 296.769 316.385"></polygon>
                <polygon id="Fill-197" fill="#E2E5ED" points="304.8252 181.7954 278.9592 166.8614 278.9592 162.2474 304.8252 177.1754"></polygon>
                <polygon id="Fill-199" fill="#D9DAE3" points="304.8252 181.7954 330.7032 166.8614 330.7032 162.2474 304.8252 177.1754"></polygon>
                <polygon id="Fill-201" fill="#E2E5ED" points="44.9448 421.1744 0.1188 395.2964 0.1188 287.6144 44.9448 313.4984"></polygon>
                <polygon id="Fill-203" fill="#EBEFF7" points="44.9448 313.4996 0.1188 287.6156 44.9448 261.7376 89.7828 287.6156"></polygon>
                <polygon id="Fill-205" fill="#5B6BB1" points="36.882 335.762 8.196 319.196 8.196 304.7 36.882 321.26"></polygon>
                <polygon id="Fill-207" fill="#D9DAE3" points="89.7804 395.2934 44.9424 421.1714 44.9424 313.5134 89.7804 287.6174"></polygon>
                <polygon id="Fill-209" fill="#5B6BB1" points="63.765 329.5484 53.013 335.7644 53.013 321.2624 63.765 315.0644"></polygon>
                <polygon id="Fill-211" fill="#5B6BB1" points="81.7062 319.1978 70.9542 325.4138 70.9542 310.9178 81.7062 304.6958"></polygon>
                <polygon id="Fill-213" fill="#5B6BB1" points="63.765 351.2954 53.013 357.5114 53.013 343.0154 63.765 336.7934"></polygon>
                <polygon id="Fill-215" fill="#5B6BB1" points="81.7062 340.9448 70.9542 347.1488 70.9542 332.6648 81.7062 326.4488"></polygon>
                <polygon id="Fill-217" fill="#5B6BB1" points="63.765 373.0454 53.013 379.2434 53.013 364.7594 63.765 358.5434"></polygon>
                <polygon id="Fill-219" fill="#5B6BB1" points="81.7062 362.6774 70.9542 368.8994 70.9542 354.3974 81.7062 348.1934"></polygon>
                <polygon id="Fill-221" fill="#5B6BB1" points="63.765 395.8088 53.013 402.0248 53.013 387.5288 63.765 381.3248"></polygon>
                <polygon id="Fill-223" fill="#5B6BB1" points="81.7062 385.4612 70.9542 391.6772 70.9542 377.1752 81.7062 370.9592"></polygon>
                <polygon id="Fill-225" fill="#5B6BB1" points="36.882 357.4946 8.196 340.9286 8.196 326.4506 36.882 342.9926"></polygon>
                <polygon id="Fill-227" fill="#5B6BB1" points="36.882 379.2446 8.196 362.6786 8.196 348.1766 36.882 364.7426"></polygon>
                <polygon id="Fill-229" fill="#5B6BB1" points="36.882 402.026 8.196 385.46 8.196 370.958 36.882 387.53"></polygon>
                <polygon id="Fill-231" fill="#E2E5ED" points="44.9448 302.1146 19.0728 287.1806 19.0728 282.5606 44.9448 297.4946"></polygon>
                <polygon id="Fill-233" fill="#D9DAE3" points="44.9448 302.1146 70.8228 287.1806 70.8228 282.5606 44.9448 297.4946"></polygon>
                <polygon id="Fill-235" fill="#E2E5ED" points="402.765 411.3068 332.661 370.8488 332.661 40.5668 402.765 81.0488"></polygon>
                <polygon id="Fill-237" fill="#5B6BB1" points="394.4034 97.403 340.9134 66.533 340.9134 52.775 394.4034 83.645"></polygon>
                <polygon id="Fill-239" fill="#5B6BB1" points="394.4034 113.1764 340.9134 82.2884 340.9134 68.5364 394.4034 99.4244"></polygon>
                <polygon id="Fill-241" fill="#5B6BB1" points="394.4034 128.9528 340.9134 98.0648 340.9134 84.3068 394.4034 115.1828"></polygon>
                <polygon id="Fill-243" fill="#5B6BB1" points="394.4034 144.7082 340.9134 113.8382 340.9134 100.0862 394.4034 130.9562"></polygon>
                <polygon id="Fill-245" fill="#5B6BB1" points="394.4034 160.4846 340.9134 129.6146 340.9134 115.8446 394.4034 146.7266"></polygon>
                <polygon id="Fill-247" fill="#5B6BB1" points="394.4034 176.258 340.9134 145.37 340.9134 131.618 394.4034 162.506"></polygon>
                <polygon id="Fill-249" fill="#5B6BB1" points="394.4034 192.0344 340.9134 161.1464 340.9134 147.3884 394.4034 178.2644"></polygon>
                <polygon id="Fill-251" fill="#5B6BB1" points="394.4034 207.7904 340.9134 176.9204 340.9134 163.1684 394.4034 194.0384"></polygon>
                <polygon id="Fill-253" fill="#5B6BB1" points="394.4034 223.5668 340.9134 192.6908 340.9134 178.9208 394.4034 209.8088"></polygon>
                <polygon id="Fill-255" fill="#5B6BB1" points="394.4034 239.3402 340.9134 208.4522 340.9134 194.7002 394.4034 225.5882"></polygon>
                <polygon id="Fill-257" fill="#5B6BB1" points="394.4034 255.0992 340.9134 224.2292 340.9134 210.4712 394.4034 241.3412"></polygon>
                <polygon id="Fill-259" fill="#5B6BB1" points="394.4034 270.8726 340.9134 240.0026 340.9134 226.2326 394.4034 257.1206"></polygon>
                <polygon id="Fill-261" fill="#5B6BB1" points="394.4034 286.649 340.9134 255.761 340.9134 242.003 394.4034 272.891"></polygon>
                <polygon id="Fill-263" fill="#5B6BB1" points="394.4034 302.4224 340.9134 271.5344 340.9134 257.7824 394.4034 288.6524"></polygon>
                <polygon id="Fill-265" fill="#5B6BB1" points="394.4034 318.1808 340.9134 287.3108 340.9134 273.5528 394.4034 304.4228"></polygon>
                <polygon id="Fill-267" fill="#5B6BB1" points="394.4034 333.9542 340.9134 303.0842 340.9134 289.3142 394.4034 320.2022"></polygon>
                <polygon id="Fill-269" fill="#5B6BB1" points="394.4034 349.7306 340.9134 318.8426 340.9134 305.0846 394.4034 335.9726"></polygon>
                <polygon id="Fill-271" fill="#D9DAE3" points="354.0852 326.4488 353.1492 325.9148 353.1492 59.8328 354.0852 60.3788"></polygon>
                <polygon id="Fill-273" fill="#D9DAE3" points="367.5204 334.2122 366.6024 333.6662 366.6024 67.5962 367.5204 68.1302"></polygon>
                <polygon id="Fill-275" fill="#D9DAE3" points="380.9682 341.9642 380.0322 341.4302 380.0322 75.3482 380.9682 75.8942"></polygon>
                <g id="Group-279" transform="translate(332.500000, 0.000000)">
                    <mask id="mask-4" fill="white">
                        <use xlink:href="#path-3"></use>
                    </mask>
                    <g id="Clip-278"></g>
                    <polygon id="Fill-277" fill="#EBEFF7" mask="url(#mask-4)" points="70.265 81.0464 0.173 40.5704 70.265 0.0884 140.375 40.5704"></polygon>
                </g>
                <polygon id="Fill-280" fill="#D9DAE3" points="472.872 370.8482 402.762 411.3062 402.762 81.0482 472.872 40.5722"></polygon>
                <polygon id="Fill-282" fill="#5B6BB1" points="464.505 66.5972 411.015 97.4792 411.015 83.7092 464.505 52.8392"></polygon>
                <polygon id="Fill-284" fill="#5B6BB1" points="464.505 82.3706 411.015 113.2406 411.015 99.4886 464.505 68.6186"></polygon>
                <polygon id="Fill-286" fill="#5B6BB1" points="464.505 98.144 411.015 129.02 411.015 115.262 464.505 84.374"></polygon>
                <polygon id="Fill-288" fill="#5B6BB1" points="464.505 113.903 411.015 144.791 411.015 131.021 464.505 100.151"></polygon>
                <polygon id="Fill-290" fill="#5B6BB1" points="464.505 129.6788 411.015 160.5488 411.015 146.7908 464.505 115.9208"></polygon>
                <polygon id="Fill-292" fill="#5B6BB1" points="464.505 145.4528 411.015 176.3228 411.015 162.5708 464.505 131.6828"></polygon>
                <polygon id="Fill-294" fill="#5B6BB1" points="464.505 161.2112 411.015 192.0992 411.015 178.3412 464.505 147.4532"></polygon>
                <polygon id="Fill-296" fill="#5B6BB1" points="464.505 176.9846 411.015 207.8726 411.015 194.1026 464.505 163.2326"></polygon>
                <polygon id="Fill-298" fill="#5B6BB1" points="464.505 192.761 411.015 223.631 411.015 209.873 464.505 179.003"></polygon>
                <polygon id="Fill-300" fill="#5B6BB1" points="464.505 208.5344 411.015 239.4044 411.015 225.6524 464.505 194.7644"></polygon>
                <polygon id="Fill-302" fill="#5B6BB1" points="464.505 224.2934 411.015 255.1754 411.015 241.4234 464.505 210.5354"></polygon>
                <polygon id="Fill-304" fill="#5B6BB1" points="464.505 240.0668 411.015 270.9368 411.015 257.1848 464.505 226.3148"></polygon>
                <polygon id="Fill-306" fill="#5B6BB1" points="464.505 255.8402 411.015 286.7162 411.015 272.9582 464.505 242.0882"></polygon>
                <polygon id="Fill-308" fill="#5B6BB1" points="464.505 271.5992 411.015 302.4872 411.015 288.7292 464.505 257.8472"></polygon>
                <polygon id="Fill-310" fill="#5B6BB1" points="464.505 287.3756 411.015 318.2576 411.015 304.4876 464.505 273.6176"></polygon>
                <polygon id="Fill-312" fill="#5B6BB1" points="464.505 303.149 411.015 334.019 411.015 320.267 464.505 289.391"></polygon>
                <polygon id="Fill-314" fill="#5B6BB1" points="464.505 318.9224 411.015 349.7984 411.015 336.0404 464.505 305.1524"></polygon>
                <polygon id="Fill-316" fill="#D9DAE3" points="424.1928 342.1898 423.2748 342.7358 423.2748 76.6538 424.1928 76.1078"></polygon>
                <polygon id="Fill-318" fill="#D9DAE3" points="437.64 334.4408 436.704 334.9688 436.704 68.8868 437.64 68.3528"></polygon>
                <polygon id="Fill-320" fill="#D9DAE3" points="451.0752 326.6744 450.1392 327.2204 450.1392 61.1384 451.0752 60.5924"></polygon>
                <polygon id="Fill-322" fill="#E2E5ED" points="555.0852 398.1176 510.2472 372.2396 510.2472 202.4456 555.0852 228.3296"></polygon>
                <polygon id="Fill-324" fill="#EBEFF7" points="555.0852 228.3278 510.2472 202.4498 555.0852 176.5658 599.9052 202.4498"></polygon>
                <polygon id="Fill-326" fill="#5B6BB1" points="547.011 250.5932 518.325 234.0272 518.325 219.5312 547.011 236.0912"></polygon>
                <polygon id="Fill-328" fill="#D9DAE3" points="599.9034 372.254 555.0834 398.132 555.0834 228.344 599.9034 202.448"></polygon>
                <polygon id="Fill-330" fill="#5B6BB1" points="573.9114 244.379 563.1414 250.595 563.1414 236.093 573.9114 229.895"></polygon>
                <polygon id="Fill-332" fill="#5B6BB1" points="591.8352 234.0284 581.0772 240.2444 581.0772 225.7484 591.8352 219.5264"></polygon>
                <polygon id="Fill-334" fill="#5B6BB1" points="573.9114 266.1266 563.1414 272.3426 563.1414 257.8466 573.9114 251.6246"></polygon>
                <polygon id="Fill-336" fill="#5B6BB1" points="591.8352 255.776 581.0772 261.992 581.0772 247.496 591.8352 241.274"></polygon>
                <polygon id="Fill-338" fill="#5B6BB1" points="573.9114 287.8736 563.1414 294.0776 563.1414 279.5936 573.9114 273.3716"></polygon>
                <polygon id="Fill-340" fill="#5B6BB1" points="591.8352 277.508 581.0772 283.724 581.0772 269.228 591.8352 263.024"></polygon>
                <polygon id="Fill-342" fill="#5B6BB1" points="573.9114 310.64 563.1414 316.856 563.1414 302.36 573.9114 296.156"></polygon>
                <polygon id="Fill-344" fill="#5B6BB1" points="591.8352 300.2894 581.0772 306.5054 581.0772 292.0094 591.8352 285.7934"></polygon>
                <polygon id="Fill-346" fill="#5B6BB1" points="573.9114 334.9712 563.1414 341.1752 563.1414 326.6912 573.9114 320.4692"></polygon>
                <polygon id="Fill-348" fill="#5B6BB1" points="591.8352 324.6056 581.0772 330.8216 581.0772 316.3256 591.8352 310.1216"></polygon>
                <polygon id="Fill-350" fill="#5B6BB1" points="573.9114 359.8352 563.1414 366.0392 563.1414 351.5552 573.9114 345.3392"></polygon>
                <polygon id="Fill-352" fill="#5B6BB1" points="591.8352 349.4702 581.0772 355.6862 581.0772 341.1902 591.8352 334.9862"></polygon>
                <polygon id="Fill-354" fill="#5B6BB1" points="547.011 272.3258 518.325 255.7598 518.325 241.2758 547.011 257.8238"></polygon>
                <polygon id="Fill-356" fill="#5B6BB1" points="547.011 294.0758 518.325 277.5098 518.325 263.0078 547.011 279.5738"></polygon>
                <polygon id="Fill-358" fill="#5B6BB1" points="547.011 316.8566 518.325 300.2906 518.325 285.7946 547.011 302.3546"></polygon>
                <polygon id="Fill-360" fill="#5B6BB1" points="547.011 341.1734 518.325 324.6074 518.325 310.1234 547.011 326.6894"></polygon>
                <polygon id="Fill-362" fill="#5B6BB1" points="547.011 366.0374 518.325 349.4714 518.325 334.9874 547.011 351.5534"></polygon>
                <polygon id="Fill-364" fill="#E2E5ED" points="555.0852 216.9632 529.2072 202.0112 529.2072 197.3912 555.0852 212.3312"></polygon>
                <polygon id="Fill-366" fill="#D9DAE3" points="555.0852 216.9632 580.9512 202.0112 580.9512 197.3912 555.0852 212.3312"></polygon>
                <path d="M502.1748,379.6958 L497.1228,379.6958 L497.1228,397.4558 C497.1648,397.9118 497.4468,398.3078 497.8608,398.4938 C498.9888,399.0578 500.3088,399.0578 501.4308,398.4938 C501.8448,398.3078 502.1328,397.9118 502.1748,397.4558 L502.1748,379.6958 Z" id="Fill-368" fill="#443D31"></path>
                <path d="M499.7724,353.4752 C507.0804,353.4752 513.0084,359.4032 513.0084,366.7172 C513.0084,374.0312 507.0804,379.9532 499.7724,379.9532 C492.4584,379.9532 486.5304,374.0312 486.5304,366.7172 C486.5304,359.4032 492.4584,353.4752 499.7724,353.4752" id="Fill-370" fill="#BDD532"></path>
                <path d="M471.5304,397.4084 L466.4784,397.4084 L466.4784,415.1684 C466.5144,415.6184 466.8024,416.0144 467.2164,416.1884 C468.3384,416.7704 469.6644,416.7704 470.7864,416.1884 C471.2064,416.0144 471.4944,415.6184 471.5304,415.1684 L471.5304,397.4084 Z" id="Fill-372" fill="#443D31"></path>
                <path d="M469.122,371.2052 C476.436,371.2052 482.364,377.1272 482.364,384.4412 C482.364,391.7552 476.436,397.6832 469.122,397.6832 C461.814,397.6832 455.886,391.7552 455.886,384.4412 C455.886,377.1272 461.814,371.2052 469.122,371.2052" id="Fill-374" fill="#BDD532"></path>
                <path d="M438.7416,416.153 L433.6836,416.153 L433.6836,433.913 C433.7256,434.369 434.0136,434.765 434.4276,434.951 C435.5496,435.515 436.8696,435.515 437.9976,434.951 C438.4116,434.765 438.6936,434.369 438.7416,433.913 L438.7416,416.153 Z" id="Fill-376" fill="#443D31"></path>
                <path d="M436.3332,389.9318 C443.6472,389.9318 449.5692,395.8598 449.5692,403.1738 C449.5692,410.4878 443.6472,416.4098 436.3332,416.4098 C429.0192,416.4098 423.0912,410.4878 423.0912,403.1738 C423.0912,395.8598 429.0192,389.9318 436.3332,389.9318" id="Fill-378" fill="#BDD532"></path>
                <path d="M406.38,436.028 L401.31,436.028 L401.31,453.788 C401.352,454.244 401.64,454.64 402.054,454.826 C403.176,455.39 404.502,455.39 405.624,454.826 C406.038,454.64 406.32,454.244 406.368,453.788 L406.38,436.028 Z" id="Fill-380" fill="#443D31"></path>
                <path d="M403.9776,409.7894 C411.2916,409.7894 417.2136,415.7174 417.2136,423.0314 C417.2136,430.3454 411.2916,436.2734 403.9776,436.2734 C396.6636,436.2734 390.7356,430.3454 390.7356,423.0314 C390.7356,415.7174 396.6636,409.7894 403.9776,409.7894" id="Fill-382" fill="#BDD532"></path>
                <path d="M190.3974,389.7092 L185.3454,389.7092 L185.3454,407.4692 C185.3874,407.9192 185.6754,408.3152 186.0894,408.5012 C187.2114,409.0652 188.5314,409.0652 189.6594,408.5012 C190.0734,408.3152 190.3554,407.9192 190.3974,407.4692 L190.3974,389.7092 Z" id="Fill-384" fill="#443D31"></path>
                <path d="M187.9956,363.4826 C195.3096,363.4826 201.2316,369.4106 201.2316,376.7246 C201.2316,384.0386 195.3096,389.9666 187.9956,389.9666 C180.6816,389.9666 174.7536,384.0386 174.7536,376.7246 C174.7536,369.4106 180.6816,363.4826 187.9956,363.4826" id="Fill-386" fill="#BDD532"></path>
                <path d="M159.753,407.4164 L154.701,407.4164 L154.701,425.1764 C154.731,425.6384 155.019,426.0404 155.445,426.2144 C156.561,426.7904 157.893,426.7904 159.015,426.2144 C159.435,426.0404 159.723,425.6384 159.753,425.1764 L159.753,407.4164 Z" id="Fill-388" fill="#443D31"></path>
                <path d="M157.3506,381.2132 C164.6646,381.2132 170.5866,387.1412 170.5866,394.4552 C170.5866,401.7692 164.6646,407.6912 157.3506,407.6912 C150.0366,407.6912 144.1086,401.7692 144.1086,394.4552 C144.1086,387.1412 150.0366,381.2132 157.3506,381.2132" id="Fill-390" fill="#BDD532"></path>
                <path d="M126.9642,426.3422 L121.9902,426.3422 L121.9902,444.1022 C122.0262,444.5522 122.3142,444.9482 122.7342,445.1222 C123.8502,445.7042 125.1822,445.7042 126.3042,445.1222 C126.7182,444.9482 127.0062,444.5522 127.0482,444.1022 L126.9642,426.3422 Z" id="Fill-392" fill="#443D31"></path>
                <path d="M124.5558,400.1684 C131.8698,400.1684 137.7978,406.0964 137.7978,413.4104 C137.7978,420.7244 131.8698,426.6464 124.5558,426.6464 C117.2418,426.6464 111.3198,420.7244 111.3198,413.4104 C111.3198,406.0964 117.2418,400.1684 124.5558,400.1684" id="Fill-394" fill="#BDD532"></path>
                <path d="M529.9602,400.1858 L524.9082,400.1858 L524.9082,417.9458 C524.9502,418.4018 525.2322,418.7978 525.6522,418.9778 C526.7742,419.5598 528.1002,419.5598 529.2222,418.9778 C529.6422,418.8038 529.9302,418.4018 529.9602,417.9458 L529.9602,400.1858 Z" id="Fill-396" fill="#443D31"></path>
                <path d="M527.5578,373.9826 C534.8718,373.9826 540.7938,379.9046 540.7938,387.2186 C540.7938,394.5326 534.8718,400.4606 527.5578,400.4606 C520.2438,400.4606 514.3158,394.5326 514.3158,387.2186 C514.3158,379.9046 520.2438,373.9826 527.5578,373.9826" id="Fill-398" fill="#BDD532"></path>
                <path d="M499.3158,417.9104 L494.2638,417.9104 L494.2638,435.6764 C494.3118,436.1264 494.5938,436.5164 495.0078,436.7084 C496.1298,437.2724 497.4498,437.2724 498.5778,436.7084 C498.9918,436.5224 499.2738,436.1264 499.3158,435.6764 L499.3158,417.9104 Z" id="Fill-400" fill="#443D31"></path>
                <path d="M496.9134,391.6898 C504.2274,391.6898 510.1494,397.6178 510.1494,404.9318 C510.1494,412.2458 504.2274,418.1738 496.9134,418.1738 C489.5994,418.1738 483.6714,412.2458 483.6714,404.9318 C483.6714,397.6178 489.5994,391.6898 496.9134,391.6898" id="Fill-402" fill="#BDD532"></path>
                <path d="M468.138,436.8656 L463.104,436.8656 L463.104,454.6316 C463.146,455.0756 463.422,455.4716 463.83,455.6636 C464.958,456.2276 466.284,456.2276 467.412,455.6636 C467.82,455.4716 468.096,455.0756 468.138,454.6316 L468.138,436.8656 Z" id="Fill-404" fill="#443D31"></path>
                <path d="M465.753,410.645 C473.061,410.645 478.989,416.573 478.989,423.887 C478.989,431.201 473.061,437.129 465.753,437.129 C458.439,437.129 452.511,431.201 452.511,423.887 C452.511,416.573 458.439,410.645 465.753,410.645" id="Fill-406" fill="#BDD532"></path>
                <path d="M438.6066,453.7874 L433.6026,453.7874 L433.6026,471.5474 C433.6566,471.9974 433.9386,472.3934 434.3466,472.5854 C435.4806,473.1494 436.8006,473.1494 437.9346,472.5854 C438.3366,472.3934 438.6126,471.9974 438.6606,471.5474 L438.6066,453.7874 Z" id="Fill-408" fill="#443D31"></path>
                <path d="M436.2216,427.52 C443.5356,427.52 449.4576,433.448 449.4576,440.762 C449.4576,448.076 443.5356,453.998 436.2216,453.998 C428.9076,453.998 422.9796,448.076 422.9796,440.762 C422.9796,433.448 428.9076,427.52 436.2216,427.52" id="Fill-410" fill="#BDD532"></path>
                <path d="M405.3018,473.1644 L400.2438,473.1644 L400.2438,490.9244 C400.2918,491.3744 400.5738,491.7764 400.9878,491.9564 C402.1158,492.5264 403.4298,492.5264 404.5578,491.9564 C404.9718,491.7764 405.2538,491.3744 405.3018,490.9244 L405.3018,473.1644 Z" id="Fill-412" fill="#443D31"></path>
                <path d="M402.894,446.9084 C410.208,446.9084 416.136,452.8364 416.136,460.1504 C416.136,467.4644 410.208,473.3924 402.894,473.3924 C395.58,473.3924 389.658,467.4644 389.658,460.1504 C389.658,452.8364 395.58,446.9084 402.894,446.9084" id="Fill-414" fill="#BDD532"></path>
                <path d="M405.3018,511.9124 L400.2438,511.9124 L400.2438,529.6724 C400.2798,530.1284 400.5678,530.5364 400.9878,530.7104 C402.1098,531.2864 403.4358,531.2864 404.5578,530.7104 C404.9778,530.5364 405.2658,530.1284 405.3018,529.6724 L405.3018,511.9124 Z" id="Fill-416" fill="#443D31"></path>
                <path d="M402.894,485.6918 C410.208,485.6918 416.136,491.6198 416.136,498.9338 C416.136,506.2478 410.208,512.1698 402.894,512.1698 C395.58,512.1698 389.658,506.2478 389.658,498.9338 C389.658,491.6198 395.58,485.6918 402.894,485.6918" id="Fill-418" fill="#BDD532"></path>
                <path d="M374.6574,529.6724 L369.5994,529.6724 L369.5994,547.4384 C369.6414,547.8884 369.9294,548.2844 370.3434,548.4704 C371.4714,549.0344 372.7854,549.0344 373.9134,548.4704 C374.3274,548.2844 374.6094,547.8884 374.6574,547.4384 L374.6574,529.6724 Z" id="Fill-420" fill="#443D31"></path>
                <path d="M372.249,503.4044 C379.563,503.4044 385.491,509.3324 385.491,516.6464 C385.491,523.9604 379.563,529.8824 372.249,529.8824 C364.935,529.8824 359.013,523.9604 359.013,516.6464 C359.013,509.3324 364.935,503.4044 372.249,503.4044" id="Fill-422" fill="#BDD532"></path>
                <path d="M341.8626,548.5802 L336.8106,548.5802 L336.8106,566.3402 C336.8526,566.7962 337.1346,567.1922 337.5486,567.3782 C338.6766,567.9422 339.9966,567.9422 341.1186,567.3782 C341.5326,567.1922 341.8206,566.7962 341.8626,566.3402 L341.8626,548.5802 Z" id="Fill-424" fill="#443D31"></path>
                <path d="M339.4602,522.3596 C346.7742,522.3596 352.6962,528.2876 352.6962,535.6016 C352.6962,542.9156 346.7742,548.8376 339.4602,548.8376 C332.1462,548.8376 326.2182,542.9156 326.2182,535.6016 C326.2182,528.2876 332.1462,522.3596 339.4602,522.3596" id="Fill-426" fill="#BDD532"></path>
                <path d="M502.1748,455.4044 L497.1228,455.4044 L497.1228,473.1644 C497.1648,473.6144 497.4468,474.0164 497.8608,474.1964 C498.9888,474.7664 500.3088,474.7664 501.4308,474.1964 C501.8448,474.0164 502.1328,473.6144 502.1748,473.1644 L502.1748,455.4044 Z" id="Fill-428" fill="#443D31"></path>
                <path d="M499.7724,429.1838 C507.0804,429.1838 513.0084,435.1058 513.0084,442.4198 C513.0084,449.7338 507.0804,455.6618 499.7724,455.6618 C492.4584,455.6618 486.5304,449.7338 486.5304,442.4198 C486.5304,435.1058 492.4584,429.1838 499.7724,429.1838" id="Fill-430" fill="#BDD532"></path>
                <path d="M471.5304,473.1644 L466.4784,473.1644 L466.4784,490.9244 C466.5204,491.3744 466.8024,491.7764 467.2164,491.9564 C468.3444,492.5264 469.6644,492.5264 470.7864,491.9564 C471.2004,491.7764 471.4884,491.3744 471.5304,490.9244 L471.5304,473.1644 Z" id="Fill-432" fill="#443D31"></path>
                <path d="M469.122,446.9084 C476.436,446.9084 482.364,452.8364 482.364,460.1504 C482.364,467.4644 476.436,473.3924 469.122,473.3924 C461.814,473.3924 455.886,467.4644 455.886,460.1504 C455.886,452.8364 461.814,446.9084 469.122,446.9084" id="Fill-434" fill="#BDD532"></path>
                <path d="M438.7416,492.0842 L433.6836,492.0842 L433.6836,509.8502 C433.7256,510.3002 434.0136,510.6962 434.4276,510.8822 C435.5496,511.4462 436.8696,511.4462 437.9976,510.8822 C438.4116,510.6962 438.6936,510.3002 438.7416,509.8502 L438.7416,492.0842 Z" id="Fill-436" fill="#443D31"></path>
                <path d="M436.3332,465.8636 C443.6472,465.8636 449.5692,471.7916 449.5692,479.1056 C449.5692,486.4196 443.6472,492.3476 436.3332,492.3476 C429.0192,492.3476 423.0912,486.4196 423.0912,479.1056 C423.0912,471.7916 429.0192,465.8636 436.3332,465.8636" id="Fill-438" fill="#BDD532"></path>
                <path d="M563.3178,419.885 L558.2658,419.885 L558.2658,437.645 C558.3018,438.095 558.5898,438.491 559.0098,438.659 C560.1318,439.241 561.4578,439.241 562.5798,438.659 C562.9938,438.491 563.2818,438.095 563.3178,437.645 L563.3178,419.885 Z" id="Fill-440" fill="#443D31"></path>
                <path d="M560.9154,393.7286 C568.2294,393.7286 574.1514,399.6506 574.1514,406.9646 C574.1514,414.2786 568.2294,420.2066 560.9154,420.2066 C553.6014,420.2066 547.6734,414.2786 547.6734,406.9646 C547.6734,399.6506 553.6014,393.7286 560.9154,393.7286" id="Fill-442" fill="#BDD532"></path>
                <path d="M532.6728,437.645 L527.6208,437.645 L527.6208,455.405 C527.6628,455.855 527.9508,456.257 528.3648,456.437 C529.4868,457.007 530.8068,457.007 531.9348,456.437 C532.3488,456.257 532.6308,455.855 532.6728,455.405 L532.6728,437.645 Z" id="Fill-444" fill="#443D31"></path>
                <path d="M530.2704,411.4358 C537.5844,411.4358 543.5064,417.3638 543.5064,424.6778 C543.5064,431.9918 537.5844,437.9198 530.2704,437.9198 C522.9564,437.9198 517.0284,431.9918 517.0284,424.6778 C517.0284,417.3638 522.9564,411.4358 530.2704,411.4358" id="Fill-446" fill="#BDD532"></path>
                <polygon id="Fill-448" fill="#E6E64A" points="645.8706 369.3656 645.8706 369.3416 610.6146 389.7056 575.3346 369.3296 575.3346 369.3176 575.3106 369.3296 575.3106 410.0696 610.5906 430.4396 610.6206 430.4216 610.6206 389.7176"></polygon>
                <polygon id="Fill-450" fill="#007AC4" points="610.6146 389.7032 645.8706 369.3392 645.8706 369.3272 610.5906 348.9572 575.3346 369.3212 575.3346 369.3272"></polygon>
                <polygon id="Fill-452" fill="#19469B" points="645.8706 369.3656 610.6206 389.7176 610.6206 430.4216 645.8706 410.0696"></polygon>
            </g>
            <g id="Group-467" transform="translate(628.000000, 369.408000)">
                <g id="Group-457">
                    <mask id="mask-6" fill="white">
                        <use xlink:href="#path-5"></use>
                    </mask>
                    <g id="Clip-456"></g>
                    <path d="M10.628,5.6744 L1.268,0.2744 C1.214,5.0744 2.81,7.8524 4.718,8.9504 C7.154,10.3544 10.076,9.0164 10.628,5.6744" id="Fill-455" fill="#19469B" mask="url(#mask-6)"></path>
                </g>
                <g id="Group-460">
                    <mask id="mask-8" fill="white">
                        <use xlink:href="#path-7"></use>
                    </mask>
                    <g id="Clip-459"></g>
                    <path d="M19.9916,11.0768 L10.6256,5.6768 C10.5776,10.4828 12.1796,13.2608 14.0816,14.3588 C16.5176,15.7628 19.4396,14.4188 19.9916,11.0768" id="Fill-458" fill="#19469B" mask="url(#mask-8)"></path>
                </g>
                <g id="Group-463">
                    <mask id="mask-10" fill="white">
                        <use xlink:href="#path-9"></use>
                    </mask>
                    <g id="Clip-462"></g>
                    <path d="M29.3606,16.4906 L19.9886,11.0786 C19.9346,15.8846 21.5366,18.6626 23.4446,19.7666 C25.8806,21.1706 28.8086,19.8326 29.3606,16.4906" id="Fill-461" fill="#19469B" mask="url(#mask-10)"></path>
                </g>
                <g id="Group-466">
                    <mask id="mask-12" fill="white">
                        <use xlink:href="#path-11"></use>
                    </mask>
                    <g id="Clip-465"></g>
                    <path d="M38.7182,21.893 L29.3582,16.493 C29.3042,21.293 30.9002,24.071 32.8082,25.169 C35.2442,26.573 38.1662,25.235 38.7182,21.893" id="Fill-464" fill="#19469B" mask="url(#mask-12)"></path>
                </g>
            </g>
            <g id="Group-474" transform="translate(307.500000, 322.908000)">
                <polygon id="Fill-468" fill="#E6E64A" points="70.9956 20.7356 70.9956 20.7176 35.7396 41.0696 0.4596 20.6996 0.4596 20.6876 0.4356 20.6996 0.4356 61.4396 35.7156 81.8096 35.7456 81.7916 35.7456 41.0876"></polygon>
                <polygon id="Fill-470" fill="#007AC4" points="35.7396 41.0708 70.9956 20.7128 70.9956 20.7008 35.7156 0.3308 0.4596 20.6888 0.4596 20.7008"></polygon>
                <polygon id="Fill-472" fill="#19469B" points="70.9956 20.7356 35.7456 41.0876 35.7456 81.7916 70.9956 61.4396"></polygon>
            </g>
            <g id="Group-487" transform="translate(306.000000, 342.908000)">
                <g id="Group-477">
                    <mask id="mask-14" fill="white">
                        <use xlink:href="#path-13"></use>
                    </mask>
                    <g id="Clip-476"></g>
                    <path d="M11.253,6.0444 L1.893,0.6444 C1.839,5.4504 3.435,8.2224 5.343,9.3204 C7.779,10.7304 10.701,9.3864 11.253,6.0444" id="Fill-475" fill="#19469B" mask="url(#mask-14)"></path>
                </g>
                <g id="Group-480">
                    <mask id="mask-16" fill="white">
                        <use xlink:href="#path-15"></use>
                    </mask>
                    <g id="Clip-479"></g>
                    <path d="M20.6166,11.4498 L11.2506,6.0438 C11.2026,10.8558 12.8046,13.6278 14.7066,14.7258 C17.1426,16.1358 20.0646,14.7918 20.6166,11.4498" id="Fill-478" fill="#19469B" mask="url(#mask-16)"></path>
                </g>
                <g id="Group-483">
                    <mask id="mask-18" fill="white">
                        <use xlink:href="#path-17"></use>
                    </mask>
                    <g id="Clip-482"></g>
                    <path d="M29.9856,16.8576 L20.6136,11.4516 C20.5596,16.2576 22.1616,19.0356 24.0696,20.1336 C26.5056,21.5376 29.4336,20.1996 29.9856,16.8576" id="Fill-481" fill="#19469B" mask="url(#mask-18)"></path>
                </g>
                <g id="Group-486">
                    <mask id="mask-20" fill="white">
                        <use xlink:href="#path-19"></use>
                    </mask>
                    <g id="Clip-485"></g>
                    <path d="M39.3432,22.26 L29.9832,16.86 C29.9292,21.666 31.5252,24.438 33.4332,25.536 C35.8692,26.946 38.7912,25.602 39.3432,22.26" id="Fill-484" fill="#19469B" mask="url(#mask-20)"></path>
                </g>
            </g>
            <g id="Group-494" transform="translate(372.000000, 363.908000)">
                <polygon id="Fill-488" fill="#E6E64A" points="71.007 21.135 71.007 21.111 35.745 41.469 0.465 21.099 0.465 21.087 0.441 21.099 0.441 61.833 35.727 82.209 35.757 82.191 35.757 41.487"></polygon>
                <polygon id="Fill-490" fill="#007AC4" points="35.7456 41.4672 71.0076 21.1092 71.0076 21.0972 35.7276 0.7272 0.4656 21.0912 0.4656 21.0972"></polygon>
                <polygon id="Fill-492" fill="#19469B" points="71.007 21.135 35.757 41.487 35.757 82.191 71.007 61.833"></polygon>
            </g>
            <g id="Group-507" transform="translate(370.500000, 384.908000)">
                <g id="Group-497">
                    <mask id="mask-22" fill="white">
                        <use xlink:href="#path-21"></use>
                    </mask>
                    <g id="Clip-496"></g>
                    <path d="M11.265,5.4438 L1.899,0.0378 C1.845,4.8438 3.447,7.6158 5.355,8.7198 C7.791,10.1238 10.713,8.7858 11.265,5.4438" id="Fill-495" fill="#19469B" mask="url(#mask-22)"></path>
                </g>
                <g id="Group-500">
                    <mask id="mask-24" fill="white">
                        <use xlink:href="#path-23"></use>
                    </mask>
                    <g id="Clip-499"></g>
                    <path d="M20.622,10.8462 L11.262,5.4462 C11.214,10.2522 12.81,13.0242 14.718,14.1282 C17.154,15.5322 20.07,14.1882 20.622,10.8462" id="Fill-498" fill="#19469B" mask="url(#mask-24)"></path>
                </g>
                <g id="Group-503">
                    <mask id="mask-26" fill="white">
                        <use xlink:href="#path-25"></use>
                    </mask>
                    <g id="Clip-502"></g>
                    <path d="M29.9916,16.254 L20.6196,10.848 C20.5716,15.654 22.1736,18.432 24.0816,19.53 C26.5176,20.934 29.4456,19.596 29.9916,16.254" id="Fill-501" fill="#19469B" mask="url(#mask-26)"></path>
                </g>
                <g id="Group-506">
                    <mask id="mask-28" fill="white">
                        <use xlink:href="#path-27"></use>
                    </mask>
                    <g id="Clip-505"></g>
                    <path d="M39.3546,21.6564 L29.9886,16.2564 C29.9346,21.0624 31.5366,23.8344 33.4446,24.9384 C35.8806,26.3424 38.8026,24.9984 39.3546,21.6564" id="Fill-504" fill="#19469B" mask="url(#mask-28)"></path>
                </g>
            </g>
            <g id="Group-514" transform="translate(425.500000, 396.908000)">
                <polygon id="Fill-508" fill="#E6E64A" points="70.9154 20.883 70.9154 20.859 35.6594 41.217 0.3734 20.847 0.3734 20.835 0.3554 20.847 0.3554 61.587 35.6354 81.957 35.6654 81.939 35.6654 41.235"></polygon>
                <polygon id="Fill-510" fill="#007AC4" points="35.6594 41.2152 70.9154 20.8572 70.9154 20.8452 35.6354 0.4812 0.3734 20.8392 0.3734 20.8452"></polygon>
                <polygon id="Fill-512" fill="#19469B" points="70.9154 20.883 35.6654 41.235 35.6654 81.939 70.9154 61.587"></polygon>
            </g>
            <g id="Group-527" transform="translate(424.500000, 417.408000)">
                <g id="Group-517">
                    <mask id="mask-30" fill="white">
                        <use xlink:href="#path-29"></use>
                    </mask>
                    <g id="Clip-516"></g>
                    <path d="M10.6728,5.6918 L1.3128,0.2918 C1.2588,5.0918 2.8548,7.8698 4.7628,8.9678 C7.1988,10.3718 10.1208,9.0338 10.6728,5.6918" id="Fill-515" fill="#19469B" mask="url(#mask-30)"></path>
                </g>
                <g id="Group-520">
                    <mask id="mask-32" fill="white">
                        <use xlink:href="#path-31"></use>
                    </mask>
                    <g id="Clip-519"></g>
                    <path d="M20.0304,11.0942 L10.6704,5.6942 C10.6224,10.5002 12.2244,13.2722 14.1264,14.3762 C16.5624,15.7802 19.4844,14.4362 20.0304,11.0942" id="Fill-518" fill="#19469B" mask="url(#mask-32)"></path>
                </g>
                <g id="Group-523">
                    <mask id="mask-34" fill="white">
                        <use xlink:href="#path-33"></use>
                    </mask>
                    <g id="Clip-522"></g>
                    <path d="M29.4054,16.5026 L20.0334,11.0966 C19.9794,15.9026 21.5814,18.6806 23.4894,19.7786 C25.9254,21.1886 28.8534,19.8446 29.4054,16.5026" id="Fill-521" fill="#19469B" mask="url(#mask-34)"></path>
                </g>
                <g id="Group-526">
                    <mask id="mask-36" fill="white">
                        <use xlink:href="#path-35"></use>
                    </mask>
                    <g id="Clip-525"></g>
                    <path d="M38.763,21.9104 L29.403,16.5044 C29.349,21.3104 30.945,24.0824 32.853,25.1864 C35.289,26.5904 38.211,25.2524 38.763,21.9104" id="Fill-524" fill="#19469B" mask="url(#mask-36)"></path>
                </g>
            </g>
            <g id="Group-552" transform="translate(297.000000, 228.908000)">
                <path d="M83.2944,69.4632 C83.2944,46.0392 66.8424,17.5332 46.5384,5.8212 C36.4644,-0.0048 27.3264,-0.5808 20.6844,3.1752 L20.6124,3.1752 L20.4744,3.2532 C19.4184,3.8712 11.3904,8.5932 11.2524,8.6592 L14.2764,9.2892 C10.6404,13.7652 9.8004,18.5952 9.8004,26.9892 C9.8004,50.4252 26.2464,78.9192 46.5384,90.6372 C52.9404,94.3332 58.9584,95.9232 64.1964,95.6172 L62.0484,99.3132 L72.2304,93.3672 L72.7704,93.0672 L73.0404,92.9112 C79.3764,88.9812 83.2944,80.8872 83.2944,69.4632" id="Fill-528" fill="#D4951C"></path>
                <path d="M11.763,9.0558 C26.181,0.7698 49.503,14.2998 63.855,39.2718 C78.207,64.2438 78.153,91.2018 63.735,99.4878 C49.323,107.7738 26.001,94.2438 11.643,69.2718 C-2.703,44.2998 -2.649,17.3418 11.763,9.0558" id="Fill-530" fill="#EEC420"></path>
                <path d="M62.9094,69.2406 C62.9094,86.0286 51.1374,92.8086 36.5994,84.4266 C35.7054,83.8986 34.7994,83.3046 33.9174,82.7166 C33.8754,82.7046 33.8454,82.6806 33.8214,82.6446 C20.5974,73.4166 10.3194,54.5586 10.3194,38.8686 C10.3194,22.0806 22.1094,15.2886 36.6354,23.6706 C38.1954,24.5826 39.6954,25.6086 41.1114,26.7366 C53.5014,36.3366 62.9094,54.2406 62.9094,69.2406" id="Fill-532" fill="#C48815"></path>
                <path d="M62.9094,69.2406 C62.9094,86.0286 51.1374,92.8086 36.5994,84.4266 C35.7054,83.8986 34.7994,83.3046 33.9174,82.7166 C33.8754,82.7046 33.8454,82.6806 33.8214,82.6446 C21.3894,73.0566 11.9334,55.1166 11.9334,40.1166 C11.9334,23.3346 23.7114,16.5366 38.2374,24.9306 C39.2094,25.4886 40.1694,26.1126 41.1114,26.7786 C53.5014,36.3366 62.9094,54.2406 62.9094,69.2406" id="Fill-534" fill="#DF9F1C"></path>
                <path d="M43.5384,62.9826 C43.4304,63.2346 43.2624,63.4626 43.0464,63.6306 C42.8064,63.7866 42.5244,63.8646 42.2424,63.8646 C41.9184,63.8826 41.6004,63.8646 41.2764,63.8106 C40.8984,63.7326 40.5264,63.6246 40.1604,63.4866 C39.7764,63.3486 39.4104,63.1926 39.0384,63.0186 C38.7024,62.8566 38.3124,62.6706 37.8564,62.4246 L36.7344,61.8426 L35.7504,61.2366 L35.0004,60.7986 L35.0004,52.9026 L35.9724,53.4006 C36.5124,53.6946 36.9444,53.9406 37.2864,54.1446 C37.6344,54.3366 38.0904,54.6246 38.6904,55.0146 C39.2964,55.4046 39.8124,55.7646 40.1904,56.1366 C40.5744,56.5026 41.0424,56.8626 41.5224,57.3306 C41.9364,57.7566 42.3144,58.2246 42.6444,58.7226 C42.9444,59.1966 43.1964,59.7006 43.3944,60.2346 C43.5924,60.7686 43.6944,61.3386 43.6944,61.9086 C43.7124,62.2746 43.6644,62.6406 43.5384,62.9826 L43.5384,62.9826 Z M36.9084,43.1526 C37.1904,43.3086 37.5864,43.5546 38.0784,43.8906 C38.5704,44.2266 38.9844,44.5266 39.3324,44.7966 C39.7224,45.1146 40.1004,45.4626 40.4484,45.8286 C40.8264,46.1886 41.1564,46.6026 41.4204,47.0466 C41.6784,47.4726 41.8944,47.9226 42.0504,48.3906 C42.2124,48.8766 42.3024,49.3926 42.2964,49.9146 C42.3144,50.2926 42.2544,50.6766 42.1224,51.0306 C42.0264,51.2946 41.8284,51.5046 41.5704,51.6126 C41.3304,51.7206 41.0784,51.7866 40.8204,51.8166 C40.4844,51.8406 40.1544,51.7926 39.8364,51.6786 C39.4284,51.5586 39.0864,51.4446 38.7924,51.3366 C38.4144,51.1866 38.0364,51.0126 37.6704,50.8206 L36.6624,50.2806 C36.4284,50.1606 36.1104,49.9806 35.7144,49.7346 L35.0124,49.3206 L35.0124,42.0906 L35.8164,42.5346 L36.9084,43.1526 Z M48.9864,60.6186 C48.1344,58.9026 46.9224,57.3726 45.4404,56.1426 C47.4564,56.1426 48.3444,54.6126 48.0984,51.6666 C48.0204,50.5986 47.7684,49.5486 47.3604,48.5586 C46.9344,47.5506 46.3704,46.6086 45.6744,45.7566 C44.9844,44.8806 44.2164,44.0706 43.3884,43.3326 C42.4824,42.5526 41.5344,41.8326 40.5384,41.1726 L40.5384,35.2866 L37.4124,33.4746 L36.2964,34.1286 L37.4124,35.7786 L37.4124,39.2286 C36.8844,38.9106 36.0504,38.4426 34.9404,37.8366 L34.9404,32.0526 L31.8144,30.2346 L30.6924,30.8946 L31.8144,32.0166 L31.8144,36.1686 L29.8404,35.0526 L25.5444,32.5446 L24.4224,33.1926 L25.5444,34.5366 L25.5444,36.3786 L27.7824,37.6806 C28.7724,38.2206 29.4444,39.2046 29.5944,40.3206 L29.5944,47.0346 L29.9184,47.2446 L29.5944,47.0586 L29.5944,56.4846 C29.4804,57.2226 29.0904,57.3846 28.4184,56.9946 L26.1804,55.6986 L25.0644,56.3466 L25.9224,57.4686 L25.5804,59.6046 L29.6424,61.9446 L30.7584,62.6046 L31.8804,63.2406 L31.8804,69.2286 L33.7104,70.2786 L33.8604,71.6826 L34.9764,71.0286 L34.9764,65.1426 C35.5524,65.4906 36.3684,65.9706 37.4484,66.6006 L37.4484,72.4866 L39.2304,73.5006 L39.4284,74.9346 L40.5504,74.2866 L40.5504,68.3106 C41.5104,68.8206 42.4944,69.2706 43.5084,69.6666 C44.3004,69.9726 45.1344,70.1766 45.9804,70.2786 C46.6464,70.3746 47.3244,70.2906 47.9484,70.0446 C48.5184,69.7566 48.9744,69.2886 49.2564,68.7126 C49.6404,67.9146 49.8624,67.0446 49.9164,66.1626 C50.1144,64.2666 49.7964,62.3526 48.9864,60.6186 L48.9864,60.6186 Z" id="Fill-536" fill="#C48815"></path>
                <path d="M42.39,63.633 C42.282,63.891 42.114,64.119 41.898,64.281 C41.658,64.449 41.376,64.533 41.088,64.527 C40.764,64.539 40.446,64.515 40.128,64.461 C39.75,64.383 39.372,64.275 39.012,64.137 C38.628,63.999 38.256,63.843 37.89,63.663 C37.56,63.519 37.164,63.321 36.702,63.075 C36.246,62.829 35.886,62.637 35.58,62.493 L34.608,61.917 L33.858,61.473 L33.858,53.547 L34.818,54.087 L36.132,54.813 C36.468,55.017 36.936,55.305 37.53,55.701 C38.124,56.091 38.652,56.451 39.03,56.817 C39.498,57.195 39.942,57.591 40.362,58.011 C40.776,58.437 41.154,58.905 41.484,59.403 C41.784,59.877 42.036,60.381 42.234,60.915 C42.438,61.449 42.54,62.019 42.54,62.595 C42.564,62.949 42.516,63.303 42.39,63.633 L42.39,63.633 Z M33.858,42.741 L34.656,43.197 L35.772,43.803 C36.06,43.971 36.456,44.217 36.96,44.541 C37.464,44.865 37.866,45.177 38.202,45.447 C38.592,45.771 38.97,46.125 39.318,46.491 C39.69,46.857 40.014,47.259 40.29,47.697 C40.548,48.123 40.758,48.573 40.908,49.041 C41.076,49.527 41.166,50.043 41.166,50.559 C41.184,50.943 41.118,51.321 40.992,51.681 C40.89,51.939 40.698,52.155 40.452,52.281 C40.206,52.383 39.954,52.455 39.69,52.485 C39.36,52.503 39.024,52.449 38.718,52.341 C38.31,52.227 37.968,52.107 37.668,52.005 C37.362,51.903 36.996,51.717 36.546,51.489 C36.096,51.267 35.766,51.075 35.538,50.943 L34.584,50.403 L33.894,49.983 L33.894,42.741 L33.858,42.741 Z M47.838,61.239 C46.986,59.511 45.768,57.987 44.286,56.757 C46.302,56.757 47.196,55.269 46.956,52.281 C46.866,51.213 46.614,50.163 46.206,49.173 C45.786,48.165 45.228,47.223 44.532,46.377 C43.86,45.519 43.11,44.727 42.294,44.007 C41.394,43.221 40.446,42.501 39.456,41.835 L39.456,35.931 L36.33,34.131 L36.33,39.873 L33.846,38.487 L33.846,32.697 L30.726,30.897 L30.726,36.807 C30.276,36.561 29.604,36.189 28.758,35.685 L24.45,33.183 L24.45,37.017 L26.688,38.331 C27.672,38.865 28.344,39.843 28.488,40.959 L28.488,47.673 L28.812,47.883 L28.488,47.709 L28.488,57.123 C28.386,57.861 27.984,58.023 27.312,57.645 L25.074,56.337 L24.438,60.261 L28.5,62.613 L29.616,63.261 L30.738,63.909 L30.738,69.885 L33.858,71.691 L33.858,65.793 C34.434,66.141 35.262,66.621 36.342,67.251 L36.342,73.131 L39.468,74.937 L39.468,68.961 C40.422,69.471 41.412,69.921 42.42,70.311 C43.212,70.623 44.04,70.827 44.88,70.929 C45.546,71.031 46.23,70.953 46.854,70.695 C47.424,70.407 47.886,69.939 48.162,69.363 C48.552,68.565 48.774,67.695 48.822,66.813 C49.014,64.899 48.678,62.967 47.838,61.239 L47.838,61.239 Z" id="Fill-538" fill="#EDC220"></path>
                <path d="M407.394,147.276 C407.394,123.852 390.942,95.346 370.638,83.634 C360.564,77.808 351.426,77.232 344.784,80.988 L344.712,80.988 L344.574,81.066 C343.518,81.684 335.49,86.406 335.352,86.472 L338.376,87.102 C334.74,91.578 333.9,96.408 333.9,104.802 C333.9,128.238 350.352,156.732 370.638,168.45 C377.04,172.146 383.058,173.73 388.296,173.43 L386.154,177.126 L396.336,171.18 L396.87,170.88 L397.14,170.718 C403.476,166.794 407.394,158.7 407.394,147.276" id="Fill-540" fill="#D4951C"></path>
                <path d="M335.8626,86.8656 C350.2806,78.5796 373.6026,92.1096 387.9546,117.0816 C402.3066,142.0536 402.2526,169.0116 387.8346,177.2976 C373.4226,185.5836 350.1006,172.0536 335.7426,147.0876 C321.3966,122.1156 321.4506,95.1516 335.8626,86.8656" id="Fill-542" fill="#EEC420"></path>
                <path d="M387.015,147.0534 C387.015,163.8414 375.237,170.6214 360.699,162.2394 C359.805,161.7114 358.899,161.1234 358.017,160.5234 C357.981,160.5114 357.945,160.4874 357.927,160.4574 C344.697,151.2234 334.425,132.3714 334.425,116.6814 C334.425,99.8934 346.209,93.1014 360.735,101.4834 C362.301,102.3954 363.795,103.4214 365.211,104.5494 C377.601,114.1494 387.015,132.0534 387.015,147.0534" id="Fill-544" fill="#C48815"></path>
                <path d="M387.015,147.0534 C387.015,163.8414 375.237,170.6214 360.699,162.2394 C359.805,161.7114 358.899,161.1234 358.017,160.5234 C357.981,160.5114 357.945,160.4874 357.927,160.4574 C345.495,150.8694 336.039,132.9294 336.039,117.9294 C336.039,101.1474 347.811,94.3494 362.337,102.7434 C363.309,103.3014 364.275,103.9194 365.211,104.5914 C377.601,114.1494 387.015,132.0534 387.015,147.0534" id="Fill-546" fill="#DF9F1C"></path>
                <path d="M367.638,140.7954 C367.53,141.0474 367.362,141.2754 367.146,141.4434 C366.906,141.5994 366.63,141.6774 366.342,141.6774 C366.018,141.6954 365.7,141.6774 365.382,141.6294 C365.004,141.5454 364.626,141.4374 364.266,141.2994 C363.882,141.1674 363.51,141.0054 363.144,140.8314 C362.802,140.6694 362.412,140.4834 361.956,140.2374 L360.834,139.6554 L359.85,139.0494 L359.1,138.6174 L359.1,130.7154 L360.072,131.2134 C360.612,131.5074 361.044,131.7534 361.386,131.9574 C361.734,132.1434 362.19,132.4374 362.79,132.8274 C363.402,133.2174 363.912,133.5774 364.29,133.9494 C364.674,134.3154 365.148,134.6694 365.628,135.1494 C366.042,135.5694 366.42,136.0374 366.75,136.5294 C367.044,137.0094 367.296,137.5134 367.5,138.0414 C367.692,138.5814 367.794,139.1514 367.794,139.7214 C367.812,140.0874 367.764,140.4474 367.638,140.7954 L367.638,140.7954 Z M361.008,120.9654 C361.29,121.1214 361.686,121.3674 362.178,121.7034 C362.67,122.0394 363.084,122.3394 363.432,122.6094 C363.822,122.9274 364.2,123.2754 364.548,123.6414 C364.926,124.0014 365.256,124.4154 365.52,124.8594 C365.778,125.2854 365.994,125.7354 366.15,126.2034 C366.318,126.6894 366.402,127.2054 366.396,127.7274 C366.414,128.1054 366.354,128.4894 366.222,128.8434 C366.126,129.1074 365.928,129.3174 365.67,129.4254 C365.436,129.5334 365.178,129.5994 364.92,129.6294 C364.584,129.6534 364.254,129.6054 363.936,129.4914 C363.528,129.3714 363.186,129.2574 362.898,129.1494 C362.514,128.9994 362.136,128.8254 361.776,128.6334 L360.762,128.0934 C360.534,127.9734 360.21,127.7934 359.814,127.5474 L359.112,127.1334 L359.112,119.9034 L359.922,120.3474 L361.008,120.9654 Z M373.092,138.4314 C372.234,136.7094 371.022,135.1854 369.54,133.9554 C371.556,133.9554 372.444,132.4254 372.198,129.4794 C372.12,128.4114 371.868,127.3614 371.46,126.3714 C371.034,125.3634 370.476,124.4214 369.774,123.5694 C369.09,122.6934 368.316,121.8834 367.488,121.1454 C366.582,120.3654 365.634,119.6394 364.644,118.9854 L364.644,113.0994 L361.518,111.2874 L360.402,111.9414 L361.518,113.5914 L361.518,117.0354 C360.984,116.7234 360.156,116.2554 359.046,115.6494 L359.046,109.8654 L355.914,108.0474 L354.792,108.7074 L355.914,109.8294 L355.914,113.9814 L353.946,112.8654 L349.644,110.3574 L348.522,111.0054 L349.644,112.3494 L349.644,114.1914 L351.882,115.4934 C352.872,116.0334 353.544,117.0174 353.7,118.1334 L353.7,124.8474 L354.018,125.0574 L353.7,124.8714 L353.7,134.2974 C353.586,135.0354 353.196,135.1974 352.518,134.8074 L350.28,133.5114 L349.164,134.1594 L350.022,135.2814 L349.68,137.4174 L353.742,139.7574 L354.858,140.4174 L355.98,141.0534 L355.98,147.0414 L357.81,148.0914 L357.96,149.4894 L359.076,148.8414 L359.076,142.9554 C359.652,143.3034 360.468,143.7834 361.548,144.4134 L361.548,150.2994 L363.33,151.3194 L363.528,152.7474 L364.65,152.0994 L364.65,146.1234 C365.61,146.6334 366.594,147.0834 367.608,147.4734 C368.406,147.7854 369.234,147.9894 370.08,148.0914 C370.746,148.1814 371.424,148.1094 372.048,147.8574 C372.618,147.5694 373.08,147.1014 373.356,146.5254 C373.74,145.7214 373.962,144.8634 374.016,143.9754 C374.22,142.0794 373.896,140.1654 373.092,138.4314 L373.092,138.4314 Z" id="Fill-548" fill="#C48815"></path>
                <path d="M366.4896,141.4458 C366.3816,141.7038 366.2136,141.9258 365.9976,142.0938 C365.7576,142.2618 365.4756,142.3458 365.1876,142.3398 C364.8636,142.3518 364.5456,142.3278 364.2276,142.2738 C363.8496,142.1958 363.4716,142.0818 363.1116,141.9498 C362.7276,141.8118 362.3556,141.6498 361.9896,141.4818 C361.6656,141.3318 361.2636,141.1278 360.8016,140.8818 C360.3456,140.6358 359.9856,140.4498 359.6796,140.3058 L358.7076,139.7358 L357.9576,139.2858 L357.9576,131.3598 L358.9236,131.8998 L360.2316,132.6258 C360.5676,132.8298 361.0416,133.1178 361.6296,133.5138 C362.2236,133.9038 362.7516,134.2578 363.1296,134.6298 C363.5976,135.0078 364.0416,135.4038 364.4616,135.8238 C364.8816,136.2498 365.2596,136.7178 365.5836,137.2158 C365.8836,137.6898 366.1356,138.1938 366.3336,138.7278 C366.5376,139.2618 366.6396,139.8258 366.6396,140.4018 C366.6636,140.7618 366.6156,141.1098 366.4896,141.4458 L366.4896,141.4458 Z M357.9576,120.5538 L358.7556,121.0098 L359.8716,121.6158 C360.1656,121.7838 360.5556,122.0298 361.0596,122.3538 C361.5636,122.6778 361.9656,122.9898 362.3016,123.2598 C362.6916,123.5838 363.0696,123.9378 363.4176,124.3038 C363.7896,124.6698 364.1136,125.0718 364.3956,125.5098 C364.6476,125.9358 364.8576,126.3858 365.0136,126.8538 C365.1756,127.3398 365.2656,127.8558 365.2716,128.3718 C365.2836,128.7558 365.2176,129.1338 365.0916,129.4938 C364.9896,129.7518 364.8036,129.9678 364.5516,130.0938 C364.3116,130.1958 364.0536,130.2678 363.7896,130.2978 C363.4596,130.3158 363.1296,130.2618 362.8176,130.1538 C362.4096,130.0398 362.0676,129.9198 361.7676,129.8178 C361.4616,129.7158 361.0956,129.5298 360.6456,129.3018 C360.1956,129.0798 359.8656,128.8878 359.6376,128.7558 L358.6836,128.2158 L357.9936,127.7958 L357.9936,120.5538 L357.9576,120.5538 Z M371.9376,139.0518 C371.0856,137.3238 369.8736,135.8058 368.3856,134.5698 C370.4016,134.5698 371.2956,133.0818 371.0556,130.0938 C370.9656,129.0258 370.7136,127.9758 370.3056,126.9858 C369.8856,125.9778 369.3276,125.0358 368.6316,124.1898 C367.9596,123.3318 367.2096,122.5398 366.3936,121.8198 C365.4936,121.0338 364.5456,120.3138 363.5556,119.6478 L363.5556,113.7438 L360.4296,111.9438 L360.4296,117.6858 L357.9456,116.2998 L357.9456,110.5098 L354.8316,108.7098 L354.8316,114.6198 C354.3756,114.3738 353.7096,114.0018 352.8576,113.4978 L348.5496,110.9958 L348.5496,114.8298 L350.7876,116.1438 C351.7776,116.6778 352.4436,117.6558 352.5936,118.7718 L352.5936,125.4858 L352.9116,125.6958 L352.5936,125.5218 L352.5936,134.9298 C352.4856,135.6678 352.0896,135.8358 351.4116,135.4578 L349.1736,134.1498 L348.5376,138.0738 L352.5996,140.4258 L353.7156,141.0738 L354.8376,141.7278 L354.8376,147.7038 L357.9576,149.5038 L357.9576,143.6058 C358.5336,143.9538 359.3616,144.4338 360.4416,145.0638 L360.4416,150.9498 L363.5676,152.7498 L363.5676,146.7738 C364.5216,147.2838 365.5116,147.7398 366.5196,148.1238 C367.3176,148.4298 368.1396,148.6398 368.9856,148.7418 C369.6456,148.8438 370.3356,148.7658 370.9536,148.5078 C371.5236,148.2198 371.9856,147.7518 372.2616,147.1758 C372.6516,146.3778 372.8736,145.5138 372.9216,144.6198 C373.1136,142.7118 372.7776,140.7858 371.9376,139.0518 L371.9376,139.0518 Z" id="Fill-550" fill="#EDC220"></path>
            </g>
        </g>
    </g>
</svg>